<?xml version="1.0" standalone="no"?>
<!DOCTYPE svg PUBLIC "-//W3C//DTD SVG 20010904//EN"
 "http://www.w3.org/TR/2001/REC-SVG-20010904/DTD/svg10.dtd">
<svg version="1.0" xmlns="http://www.w3.org/2000/svg"
 width="360.000000pt" height="360.000000pt" viewBox="0 0 360.000000 360.000000"
 preserveAspectRatio="xMidYMid meet">

<g transform="translate(0.000000,360.000000) scale(0.100000,-0.100000)"
fill="#000000" stroke="none">
<path d="M3002 3070 c-29 -11 -99 -28 -155 -39 -56 -11 -111 -22 -122 -24 -11
-3 -3 -5 17 -6 39 -1 39 -1 154 -113 l41 -40 99 26 c54 15 99 28 101 29 3 3
-120 97 -154 118 -13 8 -23 17 -23 20 0 12 130 43 139 33 5 -5 16 -33 26 -62
9 -29 19 -52 21 -49 5 5 -26 99 -39 115 -13 16 -42 14 -105 -8z"/>
<path d="M2635 2990 c-27 -7 -27 -8 -5 -8 14 0 36 4 50 8 20 6 21 8 5 8 -11 0
-33 -4 -50 -8z"/>
<path d="M2465 2955 c-33 -8 -77 -17 -97 -21 -40 -7 -48 -18 -24 -31 8 -4 47
-39 86 -76 l71 -69 97 17 c53 9 99 18 101 21 3 2 -27 37 -67 77 -40 40 -72 78
-72 85 0 15 -18 14 -95 -3z"/>
<path d="M2288 2913 c6 -2 18 -2 25 0 6 3 1 5 -13 5 -14 0 -19 -2 -12 -5z"/>
<path d="M2248 2903 c7 -3 16 -2 19 1 4 3 -2 6 -13 5 -11 0 -14 -3 -6 -6z"/>
<path d="M2020 2854 c-97 -22 -96 -22 -68 -44 14 -10 45 -46 69 -79 29 -40 51
-61 64 -60 26 0 164 25 169 30 2 2 -25 38 -60 79 -35 41 -64 78 -64 83 0 10
-36 7 -110 -9z"/>
<path d="M1860 2820 c-20 -6 -21 -8 -5 -8 11 0 31 4 45 8 20 6 21 8 5 8 -11 0
-31 -4 -45 -8z"/>
<path d="M1798 2803 c7 -3 16 -2 19 1 4 3 -2 6 -13 5 -11 0 -14 -3 -6 -6z"/>
<path d="M1655 2775 c-38 -8 -101 -19 -140 -25 -79 -14 -106 -26 -32 -16 58 9
61 7 133 -90 l53 -72 100 25 100 25 -55 72 c-30 39 -54 77 -54 83 0 16 -14 15
-105 -2z"/>
<path d="M1398 2723 c7 -3 16 -2 19 1 4 3 -2 6 -13 5 -11 0 -14 -3 -6 -6z"/>
<path d="M1358 2713 c7 -3 16 -2 19 1 4 3 -2 6 -13 5 -11 0 -14 -3 -6 -6z"/>
<path d="M1173 2673 l-102 -24 34 -35 c19 -19 53 -59 76 -89 23 -30 45 -55 50
-55 7 0 130 24 177 35 22 5 22 7 -20 68 -23 34 -50 71 -60 81 -10 11 -18 26
-18 33 0 17 -16 16 -137 -14z"/>
<path d="M967 2623 c-32 -9 -56 -17 -54 -20 5 -4 129 26 136 33 8 7 -23 2 -82
-13z"/>
<path d="M878 2593 c7 -3 16 -2 19 1 4 3 -2 6 -13 5 -11 0 -14 -3 -6 -6z"/>
<path d="M685 2545 c-270 -71 -408 -114 -428 -133 -13 -14 -18 -28 -14 -44 8
-30 74 -118 89 -118 6 0 37 10 70 21 l58 22 -35 65 c-20 35 -34 69 -33 74 2 5
21 -24 43 -66 28 -52 46 -76 58 -76 17 0 18 6 12 63 -3 34 -2 68 3 75 10 14
70 31 111 32 17 0 40 -16 73 -51 l48 -51 91 21 c50 12 100 21 111 21 11 0 18
5 16 11 -5 14 -131 168 -138 168 -3 0 -63 -15 -135 -34z"/>
<path d="M538 2433 c-24 -6 -26 -20 -17 -93 5 -36 12 -93 15 -128 10 -88 19
-93 170 -90 l119 3 3 37 c3 31 -6 49 -64 130 -103 142 -110 148 -163 147 -25
-1 -53 -3 -63 -6z m88 -38 c7 -29 7 -30 -21 -39 -31 -9 -49 8 -41 38 9 36 53
37 62 1z m189 -215 c0 -20 -6 -26 -27 -28 -29 -3 -35 9 -22 43 11 26 49 15 49
-15z m-190 -10 c0 -18 -6 -26 -23 -28 -13 -2 -25 3 -28 12 -10 26 4 48 28 44
17 -2 23 -10 23 -28z"/>
<path d="M1088 2283 c-303 -3 -308 -4 -269 -47 26 -28 34 -76 18 -106 l-13
-25 -129 3 c-96 3 -134 8 -147 19 -10 9 -19 39 -23 84 -7 65 -8 69 -29 63 -11
-4 -22 -7 -23 -8 -1 -1 -5 -49 -9 -107 l-7 -104 209 3 c172 4 211 7 219 19 6
9 30 54 55 102 l45 86 108 3 c116 3 121 0 88 -46 -23 -34 -101 -163 -101 -168
0 -2 44 -4 99 -4 l98 0 47 98 c66 136 61 132 172 132 107 0 102 10 49 -105
-57 -123 -60 -115 42 -114 l88 0 44 92 c64 133 56 127 178 127 56 0 103 -3
103 -7 0 -15 -60 -154 -75 -176 -8 -12 -15 -25 -15 -29 0 -5 43 -8 95 -8 l94
0 40 68 c21 37 53 86 70 110 l31 42 100 0 c82 0 100 -3 100 -15 0 -8 -22 -54
-50 -102 -27 -48 -50 -92 -50 -98 0 -6 32 -9 88 -7 l88 3 52 92 c75 131 74
130 121 125 21 -2 37 0 35 4 -5 7 -958 7 -1636 1z"/>
<path d="M2788 2273 c55 -5 54 -17 -7 -118 l-49 -80 86 -3 c47 -2 91 -1 97 2
6 2 33 45 60 95 l48 92 96 -7 c53 -4 97 -8 99 -9 4 -3 -53 -108 -79 -146 l-18
-26 66 -7 c49 -5 68 -4 74 6 5 7 9 52 9 99 l0 86 -202 11 c-189 11 -388 14
-280 5z"/>
<path d="M385 2251 c-27 -9 -55 -19 -61 -23 -15 -10 -27 -125 -19 -172 4 -21
13 -36 21 -36 11 0 14 -26 14 -132 0 -73 -5 -162 -10 -198 -27 -185 -20 -675
11 -783 5 -18 18 -88 29 -157 11 -69 24 -150 30 -180 5 -30 12 -72 15 -92 3
-21 9 -38 14 -38 4 0 20 18 37 40 16 22 32 40 37 40 12 0 8 -8 -18 -36 -14
-15 -25 -30 -25 -33 0 -19 2243 -15 2594 6 107 6 110 6 170 48 l61 41 2 115
c2 63 -3 186 -10 274 l-12 160 -290 8 c-286 8 -2470 -5 -2479 -14 -3 -3 -6
-56 -8 -119 l-3 -115 110 -9 c159 -13 550 -13 1010 1 487 15 1700 24 1600 12
-38 -5 -475 -13 -970 -19 -495 -6 -1021 -15 -1170 -20 -223 -8 -287 -7 -369 5
-55 8 -125 15 -157 15 -51 0 -57 -2 -52 -19 6 -24 48 -28 548 -42 302 -9 456
-9 630 -1 292 15 553 18 1080 13 231 -2 447 -1 480 3 51 5 55 4 30 -5 -20 -8
-282 -13 -815 -16 -1291 -8 -1343 -8 -1654 1 l-299 8 7 -23 c4 -13 10 -67 13
-119 l5 -95 307 4 c168 1 513 -2 766 -8 497 -13 786 -7 1410 29 100 6 202 7
230 2 36 -6 -22 -10 -215 -15 -146 -5 -305 -13 -355 -19 -61 -8 -276 -11 -670
-9 -319 1 -771 3 -1005 4 -234 1 -436 0 -450 -3 -25 -5 -25 -4 -31 80 -4 47
-12 119 -19 160 -9 57 -11 218 -7 673 l6 597 -22 1 c-12 1 -31 1 -42 1 -16 -1
-14 1 6 10 26 11 27 15 31 102 3 50 4 92 3 94 -1 1 -28 -7 -60 -18 -33 -11
-64 -19 -70 -17 -5 2 20 14 58 26 37 13 67 25 67 27 0 6 -9 4 -65 -15z m333
-1187 c26 -7 30 -39 5 -49 -17 -6 -17 -7 1 -21 26 -18 15 -27 -18 -15 -22 9
-26 16 -26 51 0 42 1 43 38 34z m227 -2 c12 -8 17 -102 5 -102 -9 0 -20 36
-20 68 0 13 -6 22 -15 22 -8 0 -15 5 -15 10 0 12 30 13 45 2z m154 -1 c12 -8
13 -12 1 -26 -11 -13 -10 -18 6 -31 18 -15 18 -15 -3 -11 -12 3 -24 0 -26 -7
-7 -19 -16 -3 -23 42 -6 37 -4 42 12 42 11 0 25 -4 33 -9z m-449 -40 c0 -22 5
-41 13 -44 6 -2 9 -8 4 -12 -4 -5 -11 -4 -16 1 -12 13 -21 94 -10 94 5 0 9
-18 9 -39z m155 29 c3 -5 -2 -11 -12 -11 -17 -1 -17 -2 0 -6 21 -5 23 -23 2
-23 -8 0 -15 -4 -15 -10 0 -5 9 -10 21 -10 11 0 17 -4 14 -10 -10 -16 -42 -12
-49 6 -3 9 -6 29 -6 45 0 22 5 29 19 29 11 0 23 -4 26 -10z m75 0 c0 -5 -4
-10 -10 -10 -5 0 -10 -14 -10 -31 0 -23 4 -30 15 -26 8 4 17 2 20 -3 7 -11
-31 -24 -45 -15 -5 3 -10 26 -10 51 0 37 3 44 20 44 11 0 20 -4 20 -10z m-286
-6 c25 -9 19 -44 -11 -70 -16 -13 -31 -24 -34 -24 -7 0 -19 52 -19 81 0 20 31
26 64 13z m445 -18 c9 -11 8 -18 -4 -30 -21 -20 -41 -21 -49 -1 -14 37 28 62
53 31z m-408 -306 c27 -15 24 -48 -6 -62 -16 -7 -25 -19 -25 -35 0 -47 -17
-21 -23 34 -7 70 8 87 54 63z m103 -29 c10 -11 15 -24 12 -29 -3 -6 1 -12 9
-16 11 -4 15 2 15 19 0 26 7 29 34 19 19 -7 22 -43 4 -46 -7 0 -17 -2 -23 -3
-5 -2 -25 -3 -42 -4 -24 -1 -33 -6 -33 -18 0 -31 -11 -5 -19 46 -7 44 -6 51 9
51 9 0 25 -9 34 -19z m164 3 c31 -21 28 -41 -9 -60 -34 -17 -49 -9 -49 28 0 9
-3 23 -6 32 -8 21 34 22 64 0z"/>
<path d="M695 1040 c3 -5 10 -10 16 -10 5 0 9 5 9 10 0 6 -7 10 -16 10 -8 0
-12 -4 -9 -10z"/>
<path d="M550 1009 c0 -33 16 -36 34 -6 8 13 7 20 -4 27 -24 16 -30 12 -30
-21z"/>
<path d="M1000 1010 c0 -5 5 -10 10 -10 6 0 10 5 10 10 0 6 -4 10 -10 10 -5 0
-10 -4 -10 -10z"/>
<path d="M590 690 c0 -23 22 -27 39 -6 9 11 8 15 -5 20 -26 10 -34 7 -34 -14z"/>
<path d="M706 675 c4 -8 10 -12 15 -9 11 6 2 24 -11 24 -5 0 -7 -7 -4 -15z"/>
<path d="M791 664 c0 -11 3 -14 6 -6 3 7 2 16 -1 19 -3 4 -6 -2 -5 -13z"/>
<path d="M860 670 c0 -11 6 -20 14 -20 21 0 31 21 15 31 -22 14 -29 11 -29
-11z"/>
<path d="M2560 2049 c-91 -5 -300 -7 -465 -5 -165 2 -387 1 -492 -2 l-193 -5
0 -121 c0 -110 -10 -250 -25 -366 l-6 -46 433 3 c238 1 539 7 668 12 129 6
358 11 508 11 l272 0 -1 73 c0 39 -6 155 -12 257 l-12 185 -50 7 c-68 9 -423
7 -625 -3z m-970 -89 c0 -5 -9 -10 -19 -10 -11 0 -23 -4 -26 -10 -3 -5 3 -10
14 -10 12 0 21 -4 21 -10 0 -5 -11 -10 -25 -10 -21 0 -25 -5 -25 -30 0 -16 -4
-30 -10 -30 -13 0 -13 21 1 76 10 39 14 44 40 44 16 0 29 -4 29 -10z m45 -12
c-4 -13 -8 -36 -10 -53 -1 -19 -8 -31 -18 -33 -21 -4 -21 6 -2 52 9 20 13 41
10 46 -4 6 1 10 11 10 12 0 15 -5 9 -22z m173 -10 c6 -18 13 -41 17 -50 4 -11
3 -18 -4 -18 -6 0 -16 12 -22 28 -11 27 -11 27 -20 5 -4 -13 -12 -23 -17 -23
-5 0 -13 10 -19 23 -10 22 -10 22 -17 1 -6 -20 -44 -44 -68 -44 -14 0 -4 78
12 94 10 8 11 1 6 -32 -6 -40 -5 -42 14 -30 10 7 22 25 25 40 8 33 25 37 32 8
7 -27 20 -25 27 5 9 34 23 31 34 -7z"/>
<path d="M569 2042 l-76 -3 -6 -266 c-4 -147 -4 -269 -1 -272 8 -9 718 -14
790 -6 l62 6 7 92 c11 132 21 428 15 437 -5 7 -649 18 -791 12z m77 -83 c3 -6
1 -16 -5 -22 -8 -8 -11 -6 -11 9 -1 13 -5 8 -15 -15 -18 -41 -19 -38 5 -44 11
-3 20 -10 20 -15 0 -14 -34 -25 -38 -13 -2 6 -12 11 -22 11 -24 0 -34 16 -17
27 19 11 37 47 37 73 0 17 3 19 19 10 11 -5 23 -15 27 -21z m334 1 c0 -5 -10
-10 -22 -11 -22 -1 -22 -1 2 -9 l25 -8 -22 -7 c-33 -10 -28 -25 8 -25 17 0 28
-4 24 -10 -3 -5 -19 -10 -36 -10 -28 0 -29 2 -29 45 0 41 2 45 25 45 14 0 25
-4 25 -10z m-265 -10 c3 -5 0 -10 -8 -10 -14 0 -27 -20 -27 -41 0 -5 9 -9 21
-9 11 0 17 -4 14 -10 -3 -5 -17 -10 -31 -10 -19 0 -24 5 -24 27 0 40 39 78 55
53z m58 -16 c-17 -13 -17 -13 3 -14 14 0 24 -8 27 -22 7 -24 -7 -38 -35 -38
-15 0 -18 9 -18 49 0 44 2 49 20 44 19 -5 20 -6 3 -19z m82 -6 c11 -36 28 -42
33 -12 7 35 22 39 22 6 0 -40 -30 -60 -54 -36 -9 8 -20 12 -26 9 -11 -7 -13 9
-4 43 9 31 18 28 29 -10z"/>
<path d="M1378 2000 c-4 -25 -9 -148 -12 -275 l-5 -230 15 110 c14 113 16 486
2 395z"/>
<path d="M2550 1509 c-80 -4 -374 -10 -655 -14 -280 -4 -522 -8 -537 -9 -16
-1 -219 -3 -453 -4 -418 -2 -425 -2 -425 -22 0 -15 7 -20 28 -20 15 -1 162 -3
327 -5 165 -2 354 -9 420 -15 85 -7 236 -8 525 -1 223 6 603 15 845 21 242 6
483 13 535 16 52 4 92 3 88 -1 -9 -9 -334 -23 -738 -31 -179 -4 -326 -8 -328
-9 -2 -2 0 -56 4 -121 l7 -119 366 -5 c201 -2 443 -5 536 -5 l170 0 0 175 0
175 -285 1 c-157 1 -350 -2 -430 -7z m223 -148 c19 -37 12 -51 -21 -42 -15 5
-36 5 -47 0 -11 -4 -32 -8 -47 -8 -26 -1 -28 2 -28 39 0 35 3 40 23 40 36 0
50 -20 30 -42 -15 -17 -15 -18 1 -18 9 0 24 15 33 34 18 39 36 38 56 -3z
m-173 18 c8 -1 2 -5 -15 -9 l-30 -8 28 -1 c32 -1 28 -21 -4 -21 -11 0 -17 -5
-14 -10 4 -6 15 -8 26 -5 10 4 19 2 19 -4 0 -11 -47 -27 -55 -19 -2 2 -7 23
-11 47 -7 43 -6 44 17 38 13 -4 31 -7 39 -8z m-290 -8 c0 -5 -9 -11 -20 -14
-31 -8 -25 -37 7 -37 21 0 24 -3 15 -12 -17 -17 -66 7 -58 28 3 9 6 22 6 30 0
8 10 14 25 14 14 0 25 -4 25 -9z m76 -16 c3 -14 10 -25 15 -25 5 0 6 -7 3 -15
-8 -19 -33 -19 -58 0 -17 13 -18 18 -6 40 17 32 38 32 46 0z m87 3 l16 -23 0
23 c1 42 31 17 31 -27 0 -10 -9 -17 -24 -19 -19 -1 -27 5 -34 26 -10 27 -10
27 -26 -22 -10 -31 -18 -11 -11 28 8 41 26 46 48 14z"/>
<path d="M2736 1355 c-3 -9 0 -15 9 -15 16 0 20 16 6 24 -5 3 -11 -1 -15 -9z"/>
<path d="M2350 1340 c0 -5 5 -10 10 -10 6 0 10 5 10 10 0 6 -4 10 -10 10 -5 0
-10 -4 -10 -10z"/>
<path d="M617 1423 l-138 -4 3 -126 3 -126 95 4 c52 2 206 3 342 2 l246 -2 7
26 c3 15 5 68 4 120 l-3 93 -30 4 c-46 7 -370 12 -529 9z m-52 -45 c33 -15 32
-37 -4 -82 -27 -34 -29 -35 -35 -13 -9 35 -7 107 4 107 5 0 21 -5 35 -12z
m113 -23 c25 -55 10 -90 -28 -65 -9 5 -19 5 -27 -2 -19 -15 -17 13 4 57 20 41
35 44 51 10z m52 -26 c0 -34 -4 -48 -11 -43 -6 3 -9 22 -7 40 3 23 0 34 -9 34
-7 0 -13 5 -13 10 0 6 9 10 20 10 17 0 20 -7 20 -51z m66 34 c-2 -9 -8 -19
-14 -21 -19 -6 -14 -22 8 -22 28 0 25 -17 -4 -22 -28 -6 -36 7 -36 53 0 24 4
29 24 29 17 0 23 -5 22 -17z"/>
<path d="M540 1340 c0 -16 4 -30 9 -30 12 0 24 37 16 50 -12 20 -25 10 -25
-20z"/>
<path d="M647 1340 c-3 -13 0 -20 9 -20 8 0 14 9 14 20 0 11 -4 20 -9 20 -5 0
-11 -9 -14 -20z"/>
<path d="M2150 1295 c0 -113 7 -145 25 -116 8 14 -7 241 -17 241 -4 0 -8 -56
-8 -125z"/>
<path d="M1190 1292 c0 -105 2 -122 16 -122 14 0 15 13 9 113 -10 155 -25 160
-25 9z"/>
<path d="M1224 1331 c3 -41 6 -94 6 -117 l0 -44 455 2 455 2 -2 119 -3 119
-459 -4 -458 -3 6 -74z m306 25 c-6 -8 -10 -27 -8 -42 2 -16 -2 -29 -10 -32
-10 -3 -12 4 -7 32 6 29 4 36 -9 36 -9 0 -16 5 -16 10 0 6 14 10 31 10 26 0
29 -2 19 -14z m-137 -17 c-4 -14 -12 -19 -24 -16 -11 3 -19 1 -19 -4 0 -5 12
-9 28 -10 26 0 26 -1 5 -11 -32 -16 -53 -3 -53 32 0 28 3 30 34 30 30 0 33 -3
29 -21z m73 5 c-4 -9 -1 -23 5 -31 16 -18 3 -29 -16 -13 -10 8 -15 9 -15 1 0
-6 -4 -11 -10 -11 -5 0 -8 14 -7 30 1 19 7 28 14 26 7 -3 15 -1 18 4 10 16 18
11 11 -6z"/>
<path d="M645 1159 c-66 -4 -129 -7 -140 -8 -15 -1 -20 -8 -20 -27 l0 -27 120
9 c66 4 678 9 1360 10 682 1 1252 2 1268 3 18 1 27 6 27 17 0 14 -8 16 -49 10
-26 -3 -136 -1 -242 5 -209 12 -2119 18 -2324 8z"/>
</g>
</svg>
